<?xml version="1.0" encoding="UTF-8"?>
<svg version="1.1" xmlns="http://www.w3.org/2000/svg" width="31" height="32">
<path d="M0 0 C10.23 0 20.46 0 31 0 C31 10.56 31 21.12 31 32 C20.77 32 10.54 32 0 32 C0 21.44 0 10.88 0 0 Z " fill="#0C85F8" transform="translate(0,0)"/>
<path d="M0 0 C10.23 0 20.46 0 31 0 C31 2.31 31 4.62 31 7 C30.40832031 6.34515625 29.81664063 5.6903125 29.20703125 5.015625 C24.46071862 2.03255884 20.16874815 2.56764242 14.6875 2.75 C13.66076172 2.76804688 12.63402344 2.78609375 11.57617188 2.8046875 C9.04982115 2.85168937 6.52539531 2.91737728 4 3 C3.00740382 5.97778854 2.87108418 7.96242951 2.8671875 11.0703125 C2.86589844 12.04871094 2.86460938 13.02710938 2.86328125 14.03515625 C2.86714844 15.05480469 2.87101563 16.07445313 2.875 17.125 C2.87113281 18.15238281 2.86726562 19.17976563 2.86328125 20.23828125 C2.86457031 21.21410156 2.86585937 22.18992187 2.8671875 23.1953125 C2.86831543 24.09266113 2.86944336 24.99000977 2.87060547 25.91455078 C2.76835122 27.98900469 2.76835122 27.98900469 4 29 C5.78071246 29.08726223 7.5648314 29.10699041 9.34765625 29.09765625 C10.42724609 29.09443359 11.50683594 29.09121094 12.61914062 29.08789062 C13.75544922 29.07951172 14.89175781 29.07113281 16.0625 29.0625 C17.20267578 29.05798828 18.34285156 29.05347656 19.51757812 29.04882812 C22.34510351 29.03699747 25.1725264 29.0205141 28 29 C28.66 27.35 29.32 25.7 30 24 C30.33 24 30.66 24 31 24 C31 26.64 31 29.28 31 32 C20.77 32 10.54 32 0 32 C0 21.44 0 10.88 0 0 Z " fill="#608DF6" transform="translate(0,0)"/>
<path d="M0 0 C10.23 0 20.46 0 31 0 C31 2.31 31 4.62 31 7 C30.38253906 6.34773437 29.76507812 5.69546875 29.12890625 5.0234375 C24.7153132 2.16920379 21.0765398 2.48420439 15.9375 2.625 C14.59075195 2.62693359 14.59075195 2.62693359 13.21679688 2.62890625 C7.68824069 2.70289436 4.06515888 2.93484112 0 7 C0 4.69 0 2.38 0 0 Z " fill="#70AEF7" transform="translate(0,0)"/>
<path d="M0 0 C0 2.6576011 -0.04785463 5.30803077 -0.10546875 7.96484375 C-0.13339689 9.95572105 -0.16071669 11.94660696 -0.1875 13.9375 C-0.21263672 14.93974609 -0.23777344 15.94199219 -0.26367188 16.97460938 C-0.27333984 17.94076172 -0.28300781 18.90691406 -0.29296875 19.90234375 C-0.3086792 20.78398193 -0.32438965 21.66562012 -0.34057617 22.57397461 C0.06576929 25.4684942 1.0903149 26.8329212 3 29 C1.02 29 -0.96 29 -3 29 C-3.0871142 24.91680116 -3.14043048 20.83384136 -3.1875 16.75 C-3.21263672 15.59113281 -3.23777344 14.43226562 -3.26367188 13.23828125 C-3.27333984 12.12324219 -3.28300781 11.00820312 -3.29296875 9.859375 C-3.3086792 8.83295898 -3.32438965 7.80654297 -3.34057617 6.74902344 C-2.95512763 3.63780439 -2.08024524 2.2937883 0 0 Z " fill="#4CA2F6" transform="translate(3,3)"/>
<path d="M0 0 C1.98 0 3.96 0 6 0 C6 0.66 6 1.32 6 2 C4.68 2 3.36 2 2 2 C2.680625 2.556875 3.36125 3.11375 4.0625 3.6875 C5.0215625 4.8321875 5.0215625 4.8321875 6 6 C5.75 8.75 5.75 8.75 5 11 C3.02 11 1.04 11 -1 11 C-1 10.34 -1 9.68 -1 9 C0.32 9 1.64 9 3 9 C2.319375 8.443125 1.63875 7.88625 0.9375 7.3125 C0.298125 6.549375 -0.34125 5.78625 -1 5 C-0.75 2.25 -0.75 2.25 0 0 Z " fill="#DEE8FD" transform="translate(13,11)"/>
<path d="M0 0 C0.33 0 0.66 0 1 0 C1 2.64 1 5.28 1 8 C-1.31 8 -3.62 8 -6 8 C-6 7.34 -6 6.68 -6 6 C-5.38125 5.938125 -4.7625 5.87625 -4.125 5.8125 C-1.72238859 5.171081 -1.72238859 5.171081 -0.75 2.4375 C-0.5025 1.633125 -0.255 0.82875 0 0 Z " fill="#D6DCF4" transform="translate(30,24)"/>
<path d="M0 0 C2.31 0 4.62 0 7 0 C7 2.31 7 4.62 7 7 C5.83040013 6.02433888 4.66438823 5.044375 3.5 4.0625 C2.8503125 3.51722656 2.200625 2.97195312 1.53125 2.41015625 C1.0259375 1.94480469 0.520625 1.47945313 0 1 C0 0.67 0 0.34 0 0 Z " fill="#EAF1FD" transform="translate(24,0)"/>
<path d="M0 0 C2.12038635 2.61514317 4.13091744 5.19637616 6 8 C4.02 8 2.04 8 0 8 C0 5.36 0 2.72 0 0 Z " fill="#E5E9F3" transform="translate(0,24)"/>
<path d="M0 0 C1.98 0 3.96 0 6 0 C5.19152271 1.16945792 4.37810888 2.33550461 3.5625 3.5 C3.11003906 4.1496875 2.65757812 4.799375 2.19140625 5.46875 C1.79824219 5.9740625 1.40507812 6.479375 1 7 C0.67 7 0.34 7 0 7 C0 4.69 0 2.38 0 0 Z " fill="#F4F8FD" transform="translate(0,0)"/>
</svg>
